<?xml version="1.0" encoding="utf-8" standalone="no"?>
<!DOCTYPE svg PUBLIC "-//W3C//DTD SVG 1.1//EN"
  "http://www.w3.org/Graphics/SVG/1.1/DTD/svg11.dtd">
<svg xmlns:xlink="http://www.w3.org/1999/xlink" width="864pt" height="576pt" viewBox="0 0 864 576" xmlns="http://www.w3.org/2000/svg" version="1.1">
 <metadata>
  <rdf:RDF xmlns:dc="http://purl.org/dc/elements/1.1/" xmlns:cc="http://creativecommons.org/ns#" xmlns:rdf="http://www.w3.org/1999/02/22-rdf-syntax-ns#">
   <cc:Work>
    <dc:type rdf:resource="http://purl.org/dc/dcmitype/StillImage"/>
    <dc:date>2022-10-12T18:58:24.737808</dc:date>
    <dc:format>image/svg+xml</dc:format>
    <dc:creator>
     <cc:Agent>
      <dc:title>Matplotlib v3.6.0, https://matplotlib.org/</dc:title>
     </cc:Agent>
    </dc:creator>
   </cc:Work>
  </rdf:RDF>
 </metadata>
 <defs>
  <style type="text/css">*{stroke-linejoin: round; stroke-linecap: butt}</style>
 </defs>
 <g id="figure_1">
  <g id="patch_1">
   <path d="M 0 576 
L 864 576 
L 864 0 
L 0 0 
z
" style="fill: #ffffff"/>
  </g>
  <g id="axes_1">
   <g id="patch_2">
    <path d="M 43.45274 538.77226 
L 791.577885 538.77226 
L 791.577885 46.51447 
L 43.45274 46.51447 
z
" style="fill: #ffffff"/>
   </g>
   <g id="matplotlib.axis_1">
    <g id="xtick_1">
     <g id="line2d_1">
      <path d="M 77.458428 538.77226 
L 77.458428 46.51447 
" clip-path="url(#pb81188f9ea)" style="fill: none; stroke-dasharray: 0.8,1.32; stroke-dashoffset: 0; stroke: #000000; stroke-width: 0.8"/>
     </g>
     <g id="line2d_2">
      <defs>
       <path id="m2c47166374" d="M 0 0 
L 0 3.5 
" style="stroke: #000000; stroke-width: 0.8"/>
      </defs>
      <g>
       <use xlink:href="#m2c47166374" x="77.458428" y="538.77226" style="stroke: #000000; stroke-width: 0.8"/>
      </g>
     </g>
     <g id="text_1">
      <!-- 0 -->
      <g transform="translate(74.277178 553.370698) scale(0.1 -0.1)">
       <defs>
        <path id="DejaVuSans-30" d="M 2034 4250 
Q 1547 4250 1301 3770 
Q 1056 3291 1056 2328 
Q 1056 1369 1301 889 
Q 1547 409 2034 409 
Q 2525 409 2770 889 
Q 3016 1369 3016 2328 
Q 3016 3291 2770 3770 
Q 2525 4250 2034 4250 
z
M 2034 4750 
Q 2819 4750 3233 4129 
Q 3647 3509 3647 2328 
Q 3647 1150 3233 529 
Q 2819 -91 2034 -91 
Q 1250 -91 836 529 
Q 422 1150 422 2328 
Q 422 3509 836 4129 
Q 1250 4750 2034 4750 
z
" transform="scale(0.015625)"/>
       </defs>
       <use xlink:href="#DejaVuSans-30"/>
      </g>
     </g>
    </g>
    <g id="xtick_2">
     <g id="line2d_3">
      <path d="M 208.249538 538.77226 
L 208.249538 46.51447 
" clip-path="url(#pb81188f9ea)" style="fill: none; stroke-dasharray: 0.8,1.32; stroke-dashoffset: 0; stroke: #000000; stroke-width: 0.8"/>
     </g>
     <g id="line2d_4">
      <g>
       <use xlink:href="#m2c47166374" x="208.249538" y="538.77226" style="stroke: #000000; stroke-width: 0.8"/>
      </g>
     </g>
     <g id="text_2">
      <!-- 5 -->
      <g transform="translate(205.068288 553.370698) scale(0.1 -0.1)">
       <defs>
        <path id="DejaVuSans-35" d="M 691 4666 
L 3169 4666 
L 3169 4134 
L 1269 4134 
L 1269 2991 
Q 1406 3038 1543 3061 
Q 1681 3084 1819 3084 
Q 2600 3084 3056 2656 
Q 3513 2228 3513 1497 
Q 3513 744 3044 326 
Q 2575 -91 1722 -91 
Q 1428 -91 1123 -41 
Q 819 9 494 109 
L 494 744 
Q 775 591 1075 516 
Q 1375 441 1709 441 
Q 2250 441 2565 725 
Q 2881 1009 2881 1497 
Q 2881 1984 2565 2268 
Q 2250 2553 1709 2553 
Q 1456 2553 1204 2497 
Q 953 2441 691 2322 
L 691 4666 
z
" transform="scale(0.015625)"/>
       </defs>
       <use xlink:href="#DejaVuSans-35"/>
      </g>
     </g>
    </g>
    <g id="xtick_3">
     <g id="line2d_5">
      <path d="M 339.040647 538.77226 
L 339.040647 46.51447 
" clip-path="url(#pb81188f9ea)" style="fill: none; stroke-dasharray: 0.8,1.32; stroke-dashoffset: 0; stroke: #000000; stroke-width: 0.8"/>
     </g>
     <g id="line2d_6">
      <g>
       <use xlink:href="#m2c47166374" x="339.040647" y="538.77226" style="stroke: #000000; stroke-width: 0.8"/>
      </g>
     </g>
     <g id="text_3">
      <!-- 10 -->
      <g transform="translate(332.678147 553.370698) scale(0.1 -0.1)">
       <defs>
        <path id="DejaVuSans-31" d="M 794 531 
L 1825 531 
L 1825 4091 
L 703 3866 
L 703 4441 
L 1819 4666 
L 2450 4666 
L 2450 531 
L 3481 531 
L 3481 0 
L 794 0 
L 794 531 
z
" transform="scale(0.015625)"/>
       </defs>
       <use xlink:href="#DejaVuSans-31"/>
       <use xlink:href="#DejaVuSans-30" x="63.623047"/>
      </g>
     </g>
    </g>
    <g id="xtick_4">
     <g id="line2d_7">
      <path d="M 469.831756 538.77226 
L 469.831756 46.51447 
" clip-path="url(#pb81188f9ea)" style="fill: none; stroke-dasharray: 0.8,1.32; stroke-dashoffset: 0; stroke: #000000; stroke-width: 0.8"/>
     </g>
     <g id="line2d_8">
      <g>
       <use xlink:href="#m2c47166374" x="469.831756" y="538.77226" style="stroke: #000000; stroke-width: 0.8"/>
      </g>
     </g>
     <g id="text_4">
      <!-- 15 -->
      <g transform="translate(463.469256 553.370698) scale(0.1 -0.1)">
       <use xlink:href="#DejaVuSans-31"/>
       <use xlink:href="#DejaVuSans-35" x="63.623047"/>
      </g>
     </g>
    </g>
    <g id="xtick_5">
     <g id="line2d_9">
      <path d="M 600.622865 538.77226 
L 600.622865 46.51447 
" clip-path="url(#pb81188f9ea)" style="fill: none; stroke-dasharray: 0.8,1.32; stroke-dashoffset: 0; stroke: #000000; stroke-width: 0.8"/>
     </g>
     <g id="line2d_10">
      <g>
       <use xlink:href="#m2c47166374" x="600.622865" y="538.77226" style="stroke: #000000; stroke-width: 0.8"/>
      </g>
     </g>
     <g id="text_5">
      <!-- 20 -->
      <g transform="translate(594.260365 553.370698) scale(0.1 -0.1)">
       <defs>
        <path id="DejaVuSans-32" d="M 1228 531 
L 3431 531 
L 3431 0 
L 469 0 
L 469 531 
Q 828 903 1448 1529 
Q 2069 2156 2228 2338 
Q 2531 2678 2651 2914 
Q 2772 3150 2772 3378 
Q 2772 3750 2511 3984 
Q 2250 4219 1831 4219 
Q 1534 4219 1204 4116 
Q 875 4013 500 3803 
L 500 4441 
Q 881 4594 1212 4672 
Q 1544 4750 1819 4750 
Q 2544 4750 2975 4387 
Q 3406 4025 3406 3419 
Q 3406 3131 3298 2873 
Q 3191 2616 2906 2266 
Q 2828 2175 2409 1742 
Q 1991 1309 1228 531 
z
" transform="scale(0.015625)"/>
       </defs>
       <use xlink:href="#DejaVuSans-32"/>
       <use xlink:href="#DejaVuSans-30" x="63.623047"/>
      </g>
     </g>
    </g>
    <g id="xtick_6">
     <g id="line2d_11">
      <path d="M 731.413975 538.77226 
L 731.413975 46.51447 
" clip-path="url(#pb81188f9ea)" style="fill: none; stroke-dasharray: 0.8,1.32; stroke-dashoffset: 0; stroke: #000000; stroke-width: 0.8"/>
     </g>
     <g id="line2d_12">
      <g>
       <use xlink:href="#m2c47166374" x="731.413975" y="538.77226" style="stroke: #000000; stroke-width: 0.8"/>
      </g>
     </g>
     <g id="text_6">
      <!-- 25 -->
      <g transform="translate(725.051475 553.370698) scale(0.1 -0.1)">
       <use xlink:href="#DejaVuSans-32"/>
       <use xlink:href="#DejaVuSans-35" x="63.623047"/>
      </g>
     </g>
    </g>
    <g id="text_7">
     <!-- Sample Number -->
     <g transform="translate(360.9225 570.088197) scale(0.14 -0.14)">
      <defs>
       <path id="DejaVuSans-53" d="M 3425 4513 
L 3425 3897 
Q 3066 4069 2747 4153 
Q 2428 4238 2131 4238 
Q 1616 4238 1336 4038 
Q 1056 3838 1056 3469 
Q 1056 3159 1242 3001 
Q 1428 2844 1947 2747 
L 2328 2669 
Q 3034 2534 3370 2195 
Q 3706 1856 3706 1288 
Q 3706 609 3251 259 
Q 2797 -91 1919 -91 
Q 1588 -91 1214 -16 
Q 841 59 441 206 
L 441 856 
Q 825 641 1194 531 
Q 1563 422 1919 422 
Q 2459 422 2753 634 
Q 3047 847 3047 1241 
Q 3047 1584 2836 1778 
Q 2625 1972 2144 2069 
L 1759 2144 
Q 1053 2284 737 2584 
Q 422 2884 422 3419 
Q 422 4038 858 4394 
Q 1294 4750 2059 4750 
Q 2388 4750 2728 4690 
Q 3069 4631 3425 4513 
z
" transform="scale(0.015625)"/>
       <path id="DejaVuSans-61" d="M 2194 1759 
Q 1497 1759 1228 1600 
Q 959 1441 959 1056 
Q 959 750 1161 570 
Q 1363 391 1709 391 
Q 2188 391 2477 730 
Q 2766 1069 2766 1631 
L 2766 1759 
L 2194 1759 
z
M 3341 1997 
L 3341 0 
L 2766 0 
L 2766 531 
Q 2569 213 2275 61 
Q 1981 -91 1556 -91 
Q 1019 -91 701 211 
Q 384 513 384 1019 
Q 384 1609 779 1909 
Q 1175 2209 1959 2209 
L 2766 2209 
L 2766 2266 
Q 2766 2663 2505 2880 
Q 2244 3097 1772 3097 
Q 1472 3097 1187 3025 
Q 903 2953 641 2809 
L 641 3341 
Q 956 3463 1253 3523 
Q 1550 3584 1831 3584 
Q 2591 3584 2966 3190 
Q 3341 2797 3341 1997 
z
" transform="scale(0.015625)"/>
       <path id="DejaVuSans-6d" d="M 3328 2828 
Q 3544 3216 3844 3400 
Q 4144 3584 4550 3584 
Q 5097 3584 5394 3201 
Q 5691 2819 5691 2113 
L 5691 0 
L 5113 0 
L 5113 2094 
Q 5113 2597 4934 2840 
Q 4756 3084 4391 3084 
Q 3944 3084 3684 2787 
Q 3425 2491 3425 1978 
L 3425 0 
L 2847 0 
L 2847 2094 
Q 2847 2600 2669 2842 
Q 2491 3084 2119 3084 
Q 1678 3084 1418 2786 
Q 1159 2488 1159 1978 
L 1159 0 
L 581 0 
L 581 3500 
L 1159 3500 
L 1159 2956 
Q 1356 3278 1631 3431 
Q 1906 3584 2284 3584 
Q 2666 3584 2933 3390 
Q 3200 3197 3328 2828 
z
" transform="scale(0.015625)"/>
       <path id="DejaVuSans-70" d="M 1159 525 
L 1159 -1331 
L 581 -1331 
L 581 3500 
L 1159 3500 
L 1159 2969 
Q 1341 3281 1617 3432 
Q 1894 3584 2278 3584 
Q 2916 3584 3314 3078 
Q 3713 2572 3713 1747 
Q 3713 922 3314 415 
Q 2916 -91 2278 -91 
Q 1894 -91 1617 61 
Q 1341 213 1159 525 
z
M 3116 1747 
Q 3116 2381 2855 2742 
Q 2594 3103 2138 3103 
Q 1681 3103 1420 2742 
Q 1159 2381 1159 1747 
Q 1159 1113 1420 752 
Q 1681 391 2138 391 
Q 2594 391 2855 752 
Q 3116 1113 3116 1747 
z
" transform="scale(0.015625)"/>
       <path id="DejaVuSans-6c" d="M 603 4863 
L 1178 4863 
L 1178 0 
L 603 0 
L 603 4863 
z
" transform="scale(0.015625)"/>
       <path id="DejaVuSans-65" d="M 3597 1894 
L 3597 1613 
L 953 1613 
Q 991 1019 1311 708 
Q 1631 397 2203 397 
Q 2534 397 2845 478 
Q 3156 559 3463 722 
L 3463 178 
Q 3153 47 2828 -22 
Q 2503 -91 2169 -91 
Q 1331 -91 842 396 
Q 353 884 353 1716 
Q 353 2575 817 3079 
Q 1281 3584 2069 3584 
Q 2775 3584 3186 3129 
Q 3597 2675 3597 1894 
z
M 3022 2063 
Q 3016 2534 2758 2815 
Q 2500 3097 2075 3097 
Q 1594 3097 1305 2825 
Q 1016 2553 972 2059 
L 3022 2063 
z
" transform="scale(0.015625)"/>
       <path id="DejaVuSans-20" transform="scale(0.015625)"/>
       <path id="DejaVuSans-4e" d="M 628 4666 
L 1478 4666 
L 3547 763 
L 3547 4666 
L 4159 4666 
L 4159 0 
L 3309 0 
L 1241 3903 
L 1241 0 
L 628 0 
L 628 4666 
z
" transform="scale(0.015625)"/>
       <path id="DejaVuSans-75" d="M 544 1381 
L 544 3500 
L 1119 3500 
L 1119 1403 
Q 1119 906 1312 657 
Q 1506 409 1894 409 
Q 2359 409 2629 706 
Q 2900 1003 2900 1516 
L 2900 3500 
L 3475 3500 
L 3475 0 
L 2900 0 
L 2900 538 
Q 2691 219 2414 64 
Q 2138 -91 1772 -91 
Q 1169 -91 856 284 
Q 544 659 544 1381 
z
M 1991 3584 
L 1991 3584 
z
" transform="scale(0.015625)"/>
       <path id="DejaVuSans-62" d="M 3116 1747 
Q 3116 2381 2855 2742 
Q 2594 3103 2138 3103 
Q 1681 3103 1420 2742 
Q 1159 2381 1159 1747 
Q 1159 1113 1420 752 
Q 1681 391 2138 391 
Q 2594 391 2855 752 
Q 3116 1113 3116 1747 
z
M 1159 2969 
Q 1341 3281 1617 3432 
Q 1894 3584 2278 3584 
Q 2916 3584 3314 3078 
Q 3713 2572 3713 1747 
Q 3713 922 3314 415 
Q 2916 -91 2278 -91 
Q 1894 -91 1617 61 
Q 1341 213 1159 525 
L 1159 0 
L 581 0 
L 581 4863 
L 1159 4863 
L 1159 2969 
z
" transform="scale(0.015625)"/>
       <path id="DejaVuSans-72" d="M 2631 2963 
Q 2534 3019 2420 3045 
Q 2306 3072 2169 3072 
Q 1681 3072 1420 2755 
Q 1159 2438 1159 1844 
L 1159 0 
L 581 0 
L 581 3500 
L 1159 3500 
L 1159 2956 
Q 1341 3275 1631 3429 
Q 1922 3584 2338 3584 
Q 2397 3584 2469 3576 
Q 2541 3569 2628 3553 
L 2631 2963 
z
" transform="scale(0.015625)"/>
      </defs>
      <use xlink:href="#DejaVuSans-53"/>
      <use xlink:href="#DejaVuSans-61" x="63.476562"/>
      <use xlink:href="#DejaVuSans-6d" x="124.755859"/>
      <use xlink:href="#DejaVuSans-70" x="222.167969"/>
      <use xlink:href="#DejaVuSans-6c" x="285.644531"/>
      <use xlink:href="#DejaVuSans-65" x="313.427734"/>
      <use xlink:href="#DejaVuSans-20" x="374.951172"/>
      <use xlink:href="#DejaVuSans-4e" x="406.738281"/>
      <use xlink:href="#DejaVuSans-75" x="481.542969"/>
      <use xlink:href="#DejaVuSans-6d" x="544.921875"/>
      <use xlink:href="#DejaVuSans-62" x="642.333984"/>
      <use xlink:href="#DejaVuSans-65" x="705.810547"/>
      <use xlink:href="#DejaVuSans-72" x="767.333984"/>
     </g>
    </g>
   </g>
   <g id="matplotlib.axis_2">
    <g id="ytick_1">
     <g id="line2d_13">
      <defs>
       <path id="m44953faed9" d="M 0 0 
L -3.5 0 
" style="stroke: #000000; stroke-width: 0.8"/>
      </defs>
      <g>
       <use xlink:href="#m44953faed9" x="43.45274" y="460.65009" style="stroke: #000000; stroke-width: 0.8"/>
      </g>
     </g>
     <g id="text_8">
      <!-- 0.3 -->
      <g transform="translate(20.549615 464.449309) scale(0.1 -0.1)">
       <defs>
        <path id="DejaVuSans-2e" d="M 684 794 
L 1344 794 
L 1344 0 
L 684 0 
L 684 794 
z
" transform="scale(0.015625)"/>
        <path id="DejaVuSans-33" d="M 2597 2516 
Q 3050 2419 3304 2112 
Q 3559 1806 3559 1356 
Q 3559 666 3084 287 
Q 2609 -91 1734 -91 
Q 1441 -91 1130 -33 
Q 819 25 488 141 
L 488 750 
Q 750 597 1062 519 
Q 1375 441 1716 441 
Q 2309 441 2620 675 
Q 2931 909 2931 1356 
Q 2931 1769 2642 2001 
Q 2353 2234 1838 2234 
L 1294 2234 
L 1294 2753 
L 1863 2753 
Q 2328 2753 2575 2939 
Q 2822 3125 2822 3475 
Q 2822 3834 2567 4026 
Q 2313 4219 1838 4219 
Q 1578 4219 1281 4162 
Q 984 4106 628 3988 
L 628 4550 
Q 988 4650 1302 4700 
Q 1616 4750 1894 4750 
Q 2613 4750 3031 4423 
Q 3450 4097 3450 3541 
Q 3450 3153 3228 2886 
Q 3006 2619 2597 2516 
z
" transform="scale(0.015625)"/>
       </defs>
       <use xlink:href="#DejaVuSans-30"/>
       <use xlink:href="#DejaVuSans-2e" x="63.623047"/>
       <use xlink:href="#DejaVuSans-33" x="95.410156"/>
      </g>
     </g>
    </g>
    <g id="ytick_2">
     <g id="line2d_14">
      <g>
       <use xlink:href="#m44953faed9" x="43.45274" y="367.738731" style="stroke: #000000; stroke-width: 0.8"/>
      </g>
     </g>
     <g id="text_9">
      <!-- 0.4 -->
      <g transform="translate(20.549615 371.53795) scale(0.1 -0.1)">
       <defs>
        <path id="DejaVuSans-34" d="M 2419 4116 
L 825 1625 
L 2419 1625 
L 2419 4116 
z
M 2253 4666 
L 3047 4666 
L 3047 1625 
L 3713 1625 
L 3713 1100 
L 3047 1100 
L 3047 0 
L 2419 0 
L 2419 1100 
L 313 1100 
L 313 1709 
L 2253 4666 
z
" transform="scale(0.015625)"/>
       </defs>
       <use xlink:href="#DejaVuSans-30"/>
       <use xlink:href="#DejaVuSans-2e" x="63.623047"/>
       <use xlink:href="#DejaVuSans-34" x="95.410156"/>
      </g>
     </g>
    </g>
    <g id="ytick_3">
     <g id="line2d_15">
      <g>
       <use xlink:href="#m44953faed9" x="43.45274" y="274.827372" style="stroke: #000000; stroke-width: 0.8"/>
      </g>
     </g>
     <g id="text_10">
      <!-- 0.5 -->
      <g transform="translate(20.549615 278.626591) scale(0.1 -0.1)">
       <use xlink:href="#DejaVuSans-30"/>
       <use xlink:href="#DejaVuSans-2e" x="63.623047"/>
       <use xlink:href="#DejaVuSans-35" x="95.410156"/>
      </g>
     </g>
    </g>
    <g id="ytick_4">
     <g id="line2d_16">
      <g>
       <use xlink:href="#m44953faed9" x="43.45274" y="181.916013" style="stroke: #000000; stroke-width: 0.8"/>
      </g>
     </g>
     <g id="text_11">
      <!-- 0.6 -->
      <g transform="translate(20.549615 185.715232) scale(0.1 -0.1)">
       <defs>
        <path id="DejaVuSans-36" d="M 2113 2584 
Q 1688 2584 1439 2293 
Q 1191 2003 1191 1497 
Q 1191 994 1439 701 
Q 1688 409 2113 409 
Q 2538 409 2786 701 
Q 3034 994 3034 1497 
Q 3034 2003 2786 2293 
Q 2538 2584 2113 2584 
z
M 3366 4563 
L 3366 3988 
Q 3128 4100 2886 4159 
Q 2644 4219 2406 4219 
Q 1781 4219 1451 3797 
Q 1122 3375 1075 2522 
Q 1259 2794 1537 2939 
Q 1816 3084 2150 3084 
Q 2853 3084 3261 2657 
Q 3669 2231 3669 1497 
Q 3669 778 3244 343 
Q 2819 -91 2113 -91 
Q 1303 -91 875 529 
Q 447 1150 447 2328 
Q 447 3434 972 4092 
Q 1497 4750 2381 4750 
Q 2619 4750 2861 4703 
Q 3103 4656 3366 4563 
z
" transform="scale(0.015625)"/>
       </defs>
       <use xlink:href="#DejaVuSans-30"/>
       <use xlink:href="#DejaVuSans-2e" x="63.623047"/>
       <use xlink:href="#DejaVuSans-36" x="95.410156"/>
      </g>
     </g>
    </g>
    <g id="ytick_5">
     <g id="line2d_17">
      <g>
       <use xlink:href="#m44953faed9" x="43.45274" y="89.004654" style="stroke: #000000; stroke-width: 0.8"/>
      </g>
     </g>
     <g id="text_12">
      <!-- 0.7 -->
      <g transform="translate(20.549615 92.803873) scale(0.1 -0.1)">
       <defs>
        <path id="DejaVuSans-37" d="M 525 4666 
L 3525 4666 
L 3525 4397 
L 1831 0 
L 1172 0 
L 2766 4134 
L 525 4134 
L 525 4666 
z
" transform="scale(0.015625)"/>
       </defs>
       <use xlink:href="#DejaVuSans-30"/>
       <use xlink:href="#DejaVuSans-2e" x="63.623047"/>
       <use xlink:href="#DejaVuSans-37" x="95.410156"/>
      </g>
     </g>
    </g>
    <g id="text_13">
     <!-- Proportion -->
     <g transform="translate(13.638053 328.757896) rotate(-90) scale(0.14 -0.14)">
      <defs>
       <path id="DejaVuSans-50" d="M 1259 4147 
L 1259 2394 
L 2053 2394 
Q 2494 2394 2734 2622 
Q 2975 2850 2975 3272 
Q 2975 3691 2734 3919 
Q 2494 4147 2053 4147 
L 1259 4147 
z
M 628 4666 
L 2053 4666 
Q 2838 4666 3239 4311 
Q 3641 3956 3641 3272 
Q 3641 2581 3239 2228 
Q 2838 1875 2053 1875 
L 1259 1875 
L 1259 0 
L 628 0 
L 628 4666 
z
" transform="scale(0.015625)"/>
       <path id="DejaVuSans-6f" d="M 1959 3097 
Q 1497 3097 1228 2736 
Q 959 2375 959 1747 
Q 959 1119 1226 758 
Q 1494 397 1959 397 
Q 2419 397 2687 759 
Q 2956 1122 2956 1747 
Q 2956 2369 2687 2733 
Q 2419 3097 1959 3097 
z
M 1959 3584 
Q 2709 3584 3137 3096 
Q 3566 2609 3566 1747 
Q 3566 888 3137 398 
Q 2709 -91 1959 -91 
Q 1206 -91 779 398 
Q 353 888 353 1747 
Q 353 2609 779 3096 
Q 1206 3584 1959 3584 
z
" transform="scale(0.015625)"/>
       <path id="DejaVuSans-74" d="M 1172 4494 
L 1172 3500 
L 2356 3500 
L 2356 3053 
L 1172 3053 
L 1172 1153 
Q 1172 725 1289 603 
Q 1406 481 1766 481 
L 2356 481 
L 2356 0 
L 1766 0 
Q 1100 0 847 248 
Q 594 497 594 1153 
L 594 3053 
L 172 3053 
L 172 3500 
L 594 3500 
L 594 4494 
L 1172 4494 
z
" transform="scale(0.015625)"/>
       <path id="DejaVuSans-69" d="M 603 3500 
L 1178 3500 
L 1178 0 
L 603 0 
L 603 3500 
z
M 603 4863 
L 1178 4863 
L 1178 4134 
L 603 4134 
L 603 4863 
z
" transform="scale(0.015625)"/>
       <path id="DejaVuSans-6e" d="M 3513 2113 
L 3513 0 
L 2938 0 
L 2938 2094 
Q 2938 2591 2744 2837 
Q 2550 3084 2163 3084 
Q 1697 3084 1428 2787 
Q 1159 2491 1159 1978 
L 1159 0 
L 581 0 
L 581 3500 
L 1159 3500 
L 1159 2956 
Q 1366 3272 1645 3428 
Q 1925 3584 2291 3584 
Q 2894 3584 3203 3211 
Q 3513 2838 3513 2113 
z
" transform="scale(0.015625)"/>
      </defs>
      <use xlink:href="#DejaVuSans-50"/>
      <use xlink:href="#DejaVuSans-72" x="58.552734"/>
      <use xlink:href="#DejaVuSans-6f" x="97.416016"/>
      <use xlink:href="#DejaVuSans-70" x="158.597656"/>
      <use xlink:href="#DejaVuSans-6f" x="222.074219"/>
      <use xlink:href="#DejaVuSans-72" x="283.255859"/>
      <use xlink:href="#DejaVuSans-74" x="324.369141"/>
      <use xlink:href="#DejaVuSans-69" x="363.578125"/>
      <use xlink:href="#DejaVuSans-6f" x="391.361328"/>
      <use xlink:href="#DejaVuSans-6e" x="452.542969"/>
     </g>
    </g>
   </g>
   <g id="line2d_18">
    <path d="M 77.458428 181.916013 
L 103.61665 103.674869 
L 129.774872 165.023039 
L 155.933094 333.714854 
L 182.091316 219.080557 
L 208.249538 189.500614 
L 234.40776 372.628803 
L 260.565981 233.946374 
L 286.724203 237.662829 
L 312.882425 278.543827 
L 339.040647 153.456678 
L 365.198869 274.827372 
L 391.357091 436.412345 
L 417.515312 94.693105 
L 443.673534 429.679637 
L 469.831756 77.257241 
L 495.989978 119.975107 
L 522.1482 249.487911 
L 548.306422 454.96164 
L 574.464644 81.262041 
L 600.622865 237.662829 
L 626.781087 163.333742 
L 652.939309 68.889824 
L 679.097531 297.674428 
L 705.255753 516.396906 
L 731.413975 165.023039 
L 757.572197 237.662829 
" clip-path="url(#pb81188f9ea)" style="fill: none; stroke-dasharray: 1.5,2.475; stroke-dashoffset: 0; stroke: #000000; stroke-width: 1.5"/>
    <defs>
     <path id="mbadb5c035b" d="M 0 3 
C 0.795609 3 1.55874 2.683901 2.12132 2.12132 
C 2.683901 1.55874 3 0.795609 3 0 
C 3 -0.795609 2.683901 -1.55874 2.12132 -2.12132 
C 1.55874 -2.683901 0.795609 -3 0 -3 
C -0.795609 -3 -1.55874 -2.683901 -2.12132 -2.12132 
C -2.683901 -1.55874 -3 -0.795609 -3 0 
C -3 0.795609 -2.683901 1.55874 -2.12132 2.12132 
C -1.55874 2.683901 -0.795609 3 0 3 
z
" style="stroke: #000000"/>
    </defs>
    <g clip-path="url(#pb81188f9ea)">
     <use xlink:href="#mbadb5c035b" x="77.458428" y="181.916013" style="stroke: #000000"/>
     <use xlink:href="#mbadb5c035b" x="103.61665" y="103.674869" style="stroke: #000000"/>
     <use xlink:href="#mbadb5c035b" x="129.774872" y="165.023039" style="stroke: #000000"/>
     <use xlink:href="#mbadb5c035b" x="155.933094" y="333.714854" style="stroke: #000000"/>
     <use xlink:href="#mbadb5c035b" x="182.091316" y="219.080557" style="stroke: #000000"/>
     <use xlink:href="#mbadb5c035b" x="208.249538" y="189.500614" style="stroke: #000000"/>
     <use xlink:href="#mbadb5c035b" x="234.40776" y="372.628803" style="stroke: #000000"/>
     <use xlink:href="#mbadb5c035b" x="260.565981" y="233.946374" style="stroke: #000000"/>
     <use xlink:href="#mbadb5c035b" x="286.724203" y="237.662829" style="stroke: #000000"/>
     <use xlink:href="#mbadb5c035b" x="312.882425" y="278.543827" style="stroke: #000000"/>
     <use xlink:href="#mbadb5c035b" x="339.040647" y="153.456678" style="stroke: #000000"/>
     <use xlink:href="#mbadb5c035b" x="365.198869" y="274.827372" style="stroke: #000000"/>
     <use xlink:href="#mbadb5c035b" x="391.357091" y="436.412345" style="stroke: #000000"/>
     <use xlink:href="#mbadb5c035b" x="417.515312" y="94.693105" style="stroke: #000000"/>
     <use xlink:href="#mbadb5c035b" x="443.673534" y="429.679637" style="stroke: #000000"/>
     <use xlink:href="#mbadb5c035b" x="469.831756" y="77.257241" style="stroke: #000000"/>
     <use xlink:href="#mbadb5c035b" x="495.989978" y="119.975107" style="stroke: #000000"/>
     <use xlink:href="#mbadb5c035b" x="522.1482" y="249.487911" style="stroke: #000000"/>
     <use xlink:href="#mbadb5c035b" x="548.306422" y="454.96164" style="stroke: #000000"/>
     <use xlink:href="#mbadb5c035b" x="574.464644" y="81.262041" style="stroke: #000000"/>
     <use xlink:href="#mbadb5c035b" x="600.622865" y="237.662829" style="stroke: #000000"/>
     <use xlink:href="#mbadb5c035b" x="626.781087" y="163.333742" style="stroke: #000000"/>
     <use xlink:href="#mbadb5c035b" x="652.939309" y="68.889824" style="stroke: #000000"/>
     <use xlink:href="#mbadb5c035b" x="679.097531" y="297.674428" style="stroke: #000000"/>
     <use xlink:href="#mbadb5c035b" x="705.255753" y="516.396906" style="stroke: #000000"/>
     <use xlink:href="#mbadb5c035b" x="731.413975" y="165.023039" style="stroke: #000000"/>
     <use xlink:href="#mbadb5c035b" x="757.572197" y="237.662829" style="stroke: #000000"/>
    </g>
   </g>
   <g id="line2d_19">
    <path d="M 43.45274 243.750125 
L 791.577885 243.750125 
" clip-path="url(#pb81188f9ea)" style="fill: none; stroke: #000000; stroke-linecap: square"/>
   </g>
   <g id="line2d_20">
    <path d="M 77.458428 104.69528 
L 103.61665 101.082864 
L 129.774872 111.166532 
L 155.933094 127.057891 
L 182.091316 104.69528 
L 208.249538 103.28352 
L 234.40776 84.243278 
L 260.565981 119.375691 
L 286.724203 104.69528 
L 312.882425 119.375691 
L 339.040647 111.765107 
L 365.198869 114.640943 
L 391.357091 98.775427 
L 417.515312 103.28352 
L 443.673534 134.498321 
L 469.831756 94.667683 
L 495.989978 108.046492 
L 522.1482 111.166532 
L 548.306422 103.28352 
L 574.464644 101.827868 
L 600.622865 104.69528 
L 626.781087 104.69528 
L 652.939309 102.561321 
L 679.097531 117.855784 
L 705.255753 119.375691 
L 731.413975 111.166532 
L 757.572197 104.69528 
" clip-path="url(#pb81188f9ea)" style="fill: none"/>
    <defs>
     <path id="m848150a5dc" d="M 8 0 
L -8 -0 
" style="stroke: #ff0000"/>
    </defs>
    <g clip-path="url(#pb81188f9ea)">
     <use xlink:href="#m848150a5dc" x="77.458428" y="104.69528" style="fill: #ff0000; stroke: #ff0000"/>
     <use xlink:href="#m848150a5dc" x="103.61665" y="101.082864" style="fill: #ff0000; stroke: #ff0000"/>
     <use xlink:href="#m848150a5dc" x="129.774872" y="111.166532" style="fill: #ff0000; stroke: #ff0000"/>
     <use xlink:href="#m848150a5dc" x="155.933094" y="127.057891" style="fill: #ff0000; stroke: #ff0000"/>
     <use xlink:href="#m848150a5dc" x="182.091316" y="104.69528" style="fill: #ff0000; stroke: #ff0000"/>
     <use xlink:href="#m848150a5dc" x="208.249538" y="103.28352" style="fill: #ff0000; stroke: #ff0000"/>
     <use xlink:href="#m848150a5dc" x="234.40776" y="84.243278" style="fill: #ff0000; stroke: #ff0000"/>
     <use xlink:href="#m848150a5dc" x="260.565981" y="119.375691" style="fill: #ff0000; stroke: #ff0000"/>
     <use xlink:href="#m848150a5dc" x="286.724203" y="104.69528" style="fill: #ff0000; stroke: #ff0000"/>
     <use xlink:href="#m848150a5dc" x="312.882425" y="119.375691" style="fill: #ff0000; stroke: #ff0000"/>
     <use xlink:href="#m848150a5dc" x="339.040647" y="111.765107" style="fill: #ff0000; stroke: #ff0000"/>
     <use xlink:href="#m848150a5dc" x="365.198869" y="114.640943" style="fill: #ff0000; stroke: #ff0000"/>
     <use xlink:href="#m848150a5dc" x="391.357091" y="98.775427" style="fill: #ff0000; stroke: #ff0000"/>
     <use xlink:href="#m848150a5dc" x="417.515312" y="103.28352" style="fill: #ff0000; stroke: #ff0000"/>
     <use xlink:href="#m848150a5dc" x="443.673534" y="134.498321" style="fill: #ff0000; stroke: #ff0000"/>
     <use xlink:href="#m848150a5dc" x="469.831756" y="94.667683" style="fill: #ff0000; stroke: #ff0000"/>
     <use xlink:href="#m848150a5dc" x="495.989978" y="108.046492" style="fill: #ff0000; stroke: #ff0000"/>
     <use xlink:href="#m848150a5dc" x="522.1482" y="111.166532" style="fill: #ff0000; stroke: #ff0000"/>
     <use xlink:href="#m848150a5dc" x="548.306422" y="103.28352" style="fill: #ff0000; stroke: #ff0000"/>
     <use xlink:href="#m848150a5dc" x="574.464644" y="101.827868" style="fill: #ff0000; stroke: #ff0000"/>
     <use xlink:href="#m848150a5dc" x="600.622865" y="104.69528" style="fill: #ff0000; stroke: #ff0000"/>
     <use xlink:href="#m848150a5dc" x="626.781087" y="104.69528" style="fill: #ff0000; stroke: #ff0000"/>
     <use xlink:href="#m848150a5dc" x="652.939309" y="102.561321" style="fill: #ff0000; stroke: #ff0000"/>
     <use xlink:href="#m848150a5dc" x="679.097531" y="117.855784" style="fill: #ff0000; stroke: #ff0000"/>
     <use xlink:href="#m848150a5dc" x="705.255753" y="119.375691" style="fill: #ff0000; stroke: #ff0000"/>
     <use xlink:href="#m848150a5dc" x="731.413975" y="111.166532" style="fill: #ff0000; stroke: #ff0000"/>
     <use xlink:href="#m848150a5dc" x="757.572197" y="104.69528" style="fill: #ff0000; stroke: #ff0000"/>
    </g>
   </g>
   <g id="line2d_21">
    <path d="M 77.458428 382.80497 
L 103.61665 386.417385 
L 129.774872 376.333717 
L 155.933094 360.442358 
L 182.091316 382.80497 
L 208.249538 384.21673 
L 234.40776 403.256971 
L 260.565981 368.124559 
L 286.724203 382.80497 
L 312.882425 368.124559 
L 339.040647 375.735143 
L 365.198869 372.859307 
L 391.357091 388.724822 
L 417.515312 384.21673 
L 443.673534 353.001929 
L 469.831756 392.832567 
L 495.989978 379.453758 
L 522.1482 376.333717 
L 548.306422 384.21673 
L 574.464644 385.672381 
L 600.622865 382.80497 
L 626.781087 382.80497 
L 652.939309 384.938928 
L 679.097531 369.644466 
L 705.255753 368.124559 
L 731.413975 376.333717 
L 757.572197 382.80497 
" clip-path="url(#pb81188f9ea)" style="fill: none"/>
    <g clip-path="url(#pb81188f9ea)">
     <use xlink:href="#m848150a5dc" x="77.458428" y="382.80497" style="fill: #ff0000; stroke: #ff0000"/>
     <use xlink:href="#m848150a5dc" x="103.61665" y="386.417385" style="fill: #ff0000; stroke: #ff0000"/>
     <use xlink:href="#m848150a5dc" x="129.774872" y="376.333717" style="fill: #ff0000; stroke: #ff0000"/>
     <use xlink:href="#m848150a5dc" x="155.933094" y="360.442358" style="fill: #ff0000; stroke: #ff0000"/>
     <use xlink:href="#m848150a5dc" x="182.091316" y="382.80497" style="fill: #ff0000; stroke: #ff0000"/>
     <use xlink:href="#m848150a5dc" x="208.249538" y="384.21673" style="fill: #ff0000; stroke: #ff0000"/>
     <use xlink:href="#m848150a5dc" x="234.40776" y="403.256971" style="fill: #ff0000; stroke: #ff0000"/>
     <use xlink:href="#m848150a5dc" x="260.565981" y="368.124559" style="fill: #ff0000; stroke: #ff0000"/>
     <use xlink:href="#m848150a5dc" x="286.724203" y="382.80497" style="fill: #ff0000; stroke: #ff0000"/>
     <use xlink:href="#m848150a5dc" x="312.882425" y="368.124559" style="fill: #ff0000; stroke: #ff0000"/>
     <use xlink:href="#m848150a5dc" x="339.040647" y="375.735143" style="fill: #ff0000; stroke: #ff0000"/>
     <use xlink:href="#m848150a5dc" x="365.198869" y="372.859307" style="fill: #ff0000; stroke: #ff0000"/>
     <use xlink:href="#m848150a5dc" x="391.357091" y="388.724822" style="fill: #ff0000; stroke: #ff0000"/>
     <use xlink:href="#m848150a5dc" x="417.515312" y="384.21673" style="fill: #ff0000; stroke: #ff0000"/>
     <use xlink:href="#m848150a5dc" x="443.673534" y="353.001929" style="fill: #ff0000; stroke: #ff0000"/>
     <use xlink:href="#m848150a5dc" x="469.831756" y="392.832567" style="fill: #ff0000; stroke: #ff0000"/>
     <use xlink:href="#m848150a5dc" x="495.989978" y="379.453758" style="fill: #ff0000; stroke: #ff0000"/>
     <use xlink:href="#m848150a5dc" x="522.1482" y="376.333717" style="fill: #ff0000; stroke: #ff0000"/>
     <use xlink:href="#m848150a5dc" x="548.306422" y="384.21673" style="fill: #ff0000; stroke: #ff0000"/>
     <use xlink:href="#m848150a5dc" x="574.464644" y="385.672381" style="fill: #ff0000; stroke: #ff0000"/>
     <use xlink:href="#m848150a5dc" x="600.622865" y="382.80497" style="fill: #ff0000; stroke: #ff0000"/>
     <use xlink:href="#m848150a5dc" x="626.781087" y="382.80497" style="fill: #ff0000; stroke: #ff0000"/>
     <use xlink:href="#m848150a5dc" x="652.939309" y="384.938928" style="fill: #ff0000; stroke: #ff0000"/>
     <use xlink:href="#m848150a5dc" x="679.097531" y="369.644466" style="fill: #ff0000; stroke: #ff0000"/>
     <use xlink:href="#m848150a5dc" x="705.255753" y="368.124559" style="fill: #ff0000; stroke: #ff0000"/>
     <use xlink:href="#m848150a5dc" x="731.413975" y="376.333717" style="fill: #ff0000; stroke: #ff0000"/>
     <use xlink:href="#m848150a5dc" x="757.572197" y="382.80497" style="fill: #ff0000; stroke: #ff0000"/>
    </g>
   </g>
   <g id="patch_3">
    <path d="M 43.45274 538.77226 
L 43.45274 46.51447 
" style="fill: none; stroke: #000000; stroke-width: 0.8; stroke-linejoin: miter; stroke-linecap: square"/>
   </g>
   <g id="patch_4">
    <path d="M 791.577885 538.77226 
L 791.577885 46.51447 
" style="fill: none; stroke: #000000; stroke-width: 0.8; stroke-linejoin: miter; stroke-linecap: square"/>
   </g>
   <g id="patch_5">
    <path d="M 43.45274 538.77226 
L 791.577885 538.77226 
" style="fill: none; stroke: #000000; stroke-width: 0.8; stroke-linejoin: miter; stroke-linecap: square"/>
   </g>
   <g id="patch_6">
    <path d="M 43.45274 46.51447 
L 791.577885 46.51447 
" style="fill: none; stroke: #000000; stroke-width: 0.8; stroke-linejoin: miter; stroke-linecap: square"/>
   </g>
   <g id="text_14">
    <!-- Conviction Rate -->
    <g transform="translate(354.401563 40.51447) scale(0.16 -0.16)">
     <defs>
      <path id="DejaVuSans-43" d="M 4122 4306 
L 4122 3641 
Q 3803 3938 3442 4084 
Q 3081 4231 2675 4231 
Q 1875 4231 1450 3742 
Q 1025 3253 1025 2328 
Q 1025 1406 1450 917 
Q 1875 428 2675 428 
Q 3081 428 3442 575 
Q 3803 722 4122 1019 
L 4122 359 
Q 3791 134 3420 21 
Q 3050 -91 2638 -91 
Q 1578 -91 968 557 
Q 359 1206 359 2328 
Q 359 3453 968 4101 
Q 1578 4750 2638 4750 
Q 3056 4750 3426 4639 
Q 3797 4528 4122 4306 
z
" transform="scale(0.015625)"/>
      <path id="DejaVuSans-76" d="M 191 3500 
L 800 3500 
L 1894 563 
L 2988 3500 
L 3597 3500 
L 2284 0 
L 1503 0 
L 191 3500 
z
" transform="scale(0.015625)"/>
      <path id="DejaVuSans-63" d="M 3122 3366 
L 3122 2828 
Q 2878 2963 2633 3030 
Q 2388 3097 2138 3097 
Q 1578 3097 1268 2742 
Q 959 2388 959 1747 
Q 959 1106 1268 751 
Q 1578 397 2138 397 
Q 2388 397 2633 464 
Q 2878 531 3122 666 
L 3122 134 
Q 2881 22 2623 -34 
Q 2366 -91 2075 -91 
Q 1284 -91 818 406 
Q 353 903 353 1747 
Q 353 2603 823 3093 
Q 1294 3584 2113 3584 
Q 2378 3584 2631 3529 
Q 2884 3475 3122 3366 
z
" transform="scale(0.015625)"/>
      <path id="DejaVuSans-52" d="M 2841 2188 
Q 3044 2119 3236 1894 
Q 3428 1669 3622 1275 
L 4263 0 
L 3584 0 
L 2988 1197 
Q 2756 1666 2539 1819 
Q 2322 1972 1947 1972 
L 1259 1972 
L 1259 0 
L 628 0 
L 628 4666 
L 2053 4666 
Q 2853 4666 3247 4331 
Q 3641 3997 3641 3322 
Q 3641 2881 3436 2590 
Q 3231 2300 2841 2188 
z
M 1259 4147 
L 1259 2491 
L 2053 2491 
Q 2509 2491 2742 2702 
Q 2975 2913 2975 3322 
Q 2975 3731 2742 3939 
Q 2509 4147 2053 4147 
L 1259 4147 
z
" transform="scale(0.015625)"/>
     </defs>
     <use xlink:href="#DejaVuSans-43"/>
     <use xlink:href="#DejaVuSans-6f" x="69.824219"/>
     <use xlink:href="#DejaVuSans-6e" x="131.005859"/>
     <use xlink:href="#DejaVuSans-76" x="194.384766"/>
     <use xlink:href="#DejaVuSans-69" x="253.564453"/>
     <use xlink:href="#DejaVuSans-63" x="281.347656"/>
     <use xlink:href="#DejaVuSans-74" x="336.328125"/>
     <use xlink:href="#DejaVuSans-69" x="375.537109"/>
     <use xlink:href="#DejaVuSans-6f" x="403.320312"/>
     <use xlink:href="#DejaVuSans-6e" x="464.501953"/>
     <use xlink:href="#DejaVuSans-20" x="527.880859"/>
     <use xlink:href="#DejaVuSans-52" x="559.667969"/>
     <use xlink:href="#DejaVuSans-61" x="626.900391"/>
     <use xlink:href="#DejaVuSans-74" x="688.179688"/>
     <use xlink:href="#DejaVuSans-65" x="727.388672"/>
    </g>
   </g>
  </g>
  <g id="axes_2">
   <g id="matplotlib.axis_3">
    <g id="ytick_6">
     <g id="line2d_22">
      <defs>
       <path id="mbb503da211" d="M 0 0 
L 3.5 0 
" style="stroke: #000000; stroke-width: 0.8"/>
      </defs>
      <g>
       <use xlink:href="#mbb503da211" x="791.577885" y="243.750125" style="stroke: #000000; stroke-width: 0.8"/>
      </g>
     </g>
     <g id="text_15">
      <!-- Mean: 0.533 -->
      <g transform="translate(798.577885 247.549344) scale(0.1 -0.1)">
       <defs>
        <path id="DejaVuSans-4d" d="M 628 4666 
L 1569 4666 
L 2759 1491 
L 3956 4666 
L 4897 4666 
L 4897 0 
L 4281 0 
L 4281 4097 
L 3078 897 
L 2444 897 
L 1241 4097 
L 1241 0 
L 628 0 
L 628 4666 
z
" transform="scale(0.015625)"/>
        <path id="DejaVuSans-3a" d="M 750 794 
L 1409 794 
L 1409 0 
L 750 0 
L 750 794 
z
M 750 3309 
L 1409 3309 
L 1409 2516 
L 750 2516 
L 750 3309 
z
" transform="scale(0.015625)"/>
       </defs>
       <use xlink:href="#DejaVuSans-4d"/>
       <use xlink:href="#DejaVuSans-65" x="86.279297"/>
       <use xlink:href="#DejaVuSans-61" x="147.802734"/>
       <use xlink:href="#DejaVuSans-6e" x="209.082031"/>
       <use xlink:href="#DejaVuSans-3a" x="272.460938"/>
       <use xlink:href="#DejaVuSans-20" x="306.152344"/>
       <use xlink:href="#DejaVuSans-30" x="337.939453"/>
       <use xlink:href="#DejaVuSans-2e" x="401.5625"/>
       <use xlink:href="#DejaVuSans-35" x="433.349609"/>
       <use xlink:href="#DejaVuSans-33" x="496.972656"/>
       <use xlink:href="#DejaVuSans-33" x="560.595703"/>
      </g>
     </g>
    </g>
   </g>
   <g id="patch_7">
    <path d="M 43.45274 538.77226 
L 43.45274 46.51447 
" style="fill: none; stroke: #000000; stroke-width: 0.8; stroke-linejoin: miter; stroke-linecap: square"/>
   </g>
   <g id="patch_8">
    <path d="M 791.577885 538.77226 
L 791.577885 46.51447 
" style="fill: none; stroke: #000000; stroke-width: 0.8; stroke-linejoin: miter; stroke-linecap: square"/>
   </g>
   <g id="patch_9">
    <path d="M 43.45274 538.77226 
L 791.577885 538.77226 
" style="fill: none; stroke: #000000; stroke-width: 0.8; stroke-linejoin: miter; stroke-linecap: square"/>
   </g>
   <g id="patch_10">
    <path d="M 43.45274 46.51447 
L 791.577885 46.51447 
" style="fill: none; stroke: #000000; stroke-width: 0.8; stroke-linejoin: miter; stroke-linecap: square"/>
   </g>
  </g>
  <g id="text_16">
   <!-- Example 12-1 from Foster Text -->
   <g transform="translate(278.814062 18.197115) scale(0.2 -0.2)">
    <defs>
     <path id="DejaVuSans-45" d="M 628 4666 
L 3578 4666 
L 3578 4134 
L 1259 4134 
L 1259 2753 
L 3481 2753 
L 3481 2222 
L 1259 2222 
L 1259 531 
L 3634 531 
L 3634 0 
L 628 0 
L 628 4666 
z
" transform="scale(0.015625)"/>
     <path id="DejaVuSans-78" d="M 3513 3500 
L 2247 1797 
L 3578 0 
L 2900 0 
L 1881 1375 
L 863 0 
L 184 0 
L 1544 1831 
L 300 3500 
L 978 3500 
L 1906 2253 
L 2834 3500 
L 3513 3500 
z
" transform="scale(0.015625)"/>
     <path id="DejaVuSans-2d" d="M 313 2009 
L 1997 2009 
L 1997 1497 
L 313 1497 
L 313 2009 
z
" transform="scale(0.015625)"/>
     <path id="DejaVuSans-66" d="M 2375 4863 
L 2375 4384 
L 1825 4384 
Q 1516 4384 1395 4259 
Q 1275 4134 1275 3809 
L 1275 3500 
L 2222 3500 
L 2222 3053 
L 1275 3053 
L 1275 0 
L 697 0 
L 697 3053 
L 147 3053 
L 147 3500 
L 697 3500 
L 697 3744 
Q 697 4328 969 4595 
Q 1241 4863 1831 4863 
L 2375 4863 
z
" transform="scale(0.015625)"/>
     <path id="DejaVuSans-46" d="M 628 4666 
L 3309 4666 
L 3309 4134 
L 1259 4134 
L 1259 2759 
L 3109 2759 
L 3109 2228 
L 1259 2228 
L 1259 0 
L 628 0 
L 628 4666 
z
" transform="scale(0.015625)"/>
     <path id="DejaVuSans-73" d="M 2834 3397 
L 2834 2853 
Q 2591 2978 2328 3040 
Q 2066 3103 1784 3103 
Q 1356 3103 1142 2972 
Q 928 2841 928 2578 
Q 928 2378 1081 2264 
Q 1234 2150 1697 2047 
L 1894 2003 
Q 2506 1872 2764 1633 
Q 3022 1394 3022 966 
Q 3022 478 2636 193 
Q 2250 -91 1575 -91 
Q 1294 -91 989 -36 
Q 684 19 347 128 
L 347 722 
Q 666 556 975 473 
Q 1284 391 1588 391 
Q 1994 391 2212 530 
Q 2431 669 2431 922 
Q 2431 1156 2273 1281 
Q 2116 1406 1581 1522 
L 1381 1569 
Q 847 1681 609 1914 
Q 372 2147 372 2553 
Q 372 3047 722 3315 
Q 1072 3584 1716 3584 
Q 2034 3584 2315 3537 
Q 2597 3491 2834 3397 
z
" transform="scale(0.015625)"/>
     <path id="DejaVuSans-54" d="M -19 4666 
L 3928 4666 
L 3928 4134 
L 2272 4134 
L 2272 0 
L 1638 0 
L 1638 4134 
L -19 4134 
L -19 4666 
z
" transform="scale(0.015625)"/>
    </defs>
    <use xlink:href="#DejaVuSans-45"/>
    <use xlink:href="#DejaVuSans-78" x="63.183594"/>
    <use xlink:href="#DejaVuSans-61" x="122.363281"/>
    <use xlink:href="#DejaVuSans-6d" x="183.642578"/>
    <use xlink:href="#DejaVuSans-70" x="281.054688"/>
    <use xlink:href="#DejaVuSans-6c" x="344.53125"/>
    <use xlink:href="#DejaVuSans-65" x="372.314453"/>
    <use xlink:href="#DejaVuSans-20" x="433.837891"/>
    <use xlink:href="#DejaVuSans-31" x="465.625"/>
    <use xlink:href="#DejaVuSans-32" x="529.248047"/>
    <use xlink:href="#DejaVuSans-2d" x="592.871094"/>
    <use xlink:href="#DejaVuSans-31" x="628.955078"/>
    <use xlink:href="#DejaVuSans-20" x="692.578125"/>
    <use xlink:href="#DejaVuSans-66" x="724.365234"/>
    <use xlink:href="#DejaVuSans-72" x="759.570312"/>
    <use xlink:href="#DejaVuSans-6f" x="798.433594"/>
    <use xlink:href="#DejaVuSans-6d" x="859.615234"/>
    <use xlink:href="#DejaVuSans-20" x="957.027344"/>
    <use xlink:href="#DejaVuSans-46" x="988.814453"/>
    <use xlink:href="#DejaVuSans-6f" x="1042.708984"/>
    <use xlink:href="#DejaVuSans-73" x="1103.890625"/>
    <use xlink:href="#DejaVuSans-74" x="1155.990234"/>
    <use xlink:href="#DejaVuSans-65" x="1195.199219"/>
    <use xlink:href="#DejaVuSans-72" x="1256.722656"/>
    <use xlink:href="#DejaVuSans-20" x="1297.835938"/>
    <use xlink:href="#DejaVuSans-54" x="1329.623047"/>
    <use xlink:href="#DejaVuSans-65" x="1373.707031"/>
    <use xlink:href="#DejaVuSans-78" x="1433.480469"/>
    <use xlink:href="#DejaVuSans-74" x="1492.660156"/>
   </g>
  </g>
  <g id="text_17">
   <!-- Not In Control -->
   <g style="fill: #ff0000; opacity: 0.4" transform="translate(294.572164 382.638006) rotate(-30) scale(0.48 -0.48)">
    <defs>
     <path id="DejaVuSans-49" d="M 628 4666 
L 1259 4666 
L 1259 0 
L 628 0 
L 628 4666 
z
" transform="scale(0.015625)"/>
    </defs>
    <use xlink:href="#DejaVuSans-4e"/>
    <use xlink:href="#DejaVuSans-6f" x="74.804688"/>
    <use xlink:href="#DejaVuSans-74" x="135.986328"/>
    <use xlink:href="#DejaVuSans-20" x="175.195312"/>
    <use xlink:href="#DejaVuSans-49" x="206.982422"/>
    <use xlink:href="#DejaVuSans-6e" x="236.474609"/>
    <use xlink:href="#DejaVuSans-20" x="299.853516"/>
    <use xlink:href="#DejaVuSans-43" x="331.640625"/>
    <use xlink:href="#DejaVuSans-6f" x="401.464844"/>
    <use xlink:href="#DejaVuSans-6e" x="462.646484"/>
    <use xlink:href="#DejaVuSans-74" x="526.025391"/>
    <use xlink:href="#DejaVuSans-72" x="565.234375"/>
    <use xlink:href="#DejaVuSans-6f" x="604.097656"/>
    <use xlink:href="#DejaVuSans-6c" x="665.279297"/>
   </g>
  </g>
  <g id="text_18">
   <!-- Created with pyshewhart -->
   <g style="fill: #808080; opacity: 0.5" transform="translate(17.28 564.48) scale(0.06 -0.06)">
    <defs>
     <path id="DejaVuSans-64" d="M 2906 2969 
L 2906 4863 
L 3481 4863 
L 3481 0 
L 2906 0 
L 2906 525 
Q 2725 213 2448 61 
Q 2172 -91 1784 -91 
Q 1150 -91 751 415 
Q 353 922 353 1747 
Q 353 2572 751 3078 
Q 1150 3584 1784 3584 
Q 2172 3584 2448 3432 
Q 2725 3281 2906 2969 
z
M 947 1747 
Q 947 1113 1208 752 
Q 1469 391 1925 391 
Q 2381 391 2643 752 
Q 2906 1113 2906 1747 
Q 2906 2381 2643 2742 
Q 2381 3103 1925 3103 
Q 1469 3103 1208 2742 
Q 947 2381 947 1747 
z
" transform="scale(0.015625)"/>
     <path id="DejaVuSans-77" d="M 269 3500 
L 844 3500 
L 1563 769 
L 2278 3500 
L 2956 3500 
L 3675 769 
L 4391 3500 
L 4966 3500 
L 4050 0 
L 3372 0 
L 2619 2869 
L 1863 0 
L 1184 0 
L 269 3500 
z
" transform="scale(0.015625)"/>
     <path id="DejaVuSans-68" d="M 3513 2113 
L 3513 0 
L 2938 0 
L 2938 2094 
Q 2938 2591 2744 2837 
Q 2550 3084 2163 3084 
Q 1697 3084 1428 2787 
Q 1159 2491 1159 1978 
L 1159 0 
L 581 0 
L 581 4863 
L 1159 4863 
L 1159 2956 
Q 1366 3272 1645 3428 
Q 1925 3584 2291 3584 
Q 2894 3584 3203 3211 
Q 3513 2838 3513 2113 
z
" transform="scale(0.015625)"/>
     <path id="DejaVuSans-79" d="M 2059 -325 
Q 1816 -950 1584 -1140 
Q 1353 -1331 966 -1331 
L 506 -1331 
L 506 -850 
L 844 -850 
Q 1081 -850 1212 -737 
Q 1344 -625 1503 -206 
L 1606 56 
L 191 3500 
L 800 3500 
L 1894 763 
L 2988 3500 
L 3597 3500 
L 2059 -325 
z
" transform="scale(0.015625)"/>
    </defs>
    <use xlink:href="#DejaVuSans-43"/>
    <use xlink:href="#DejaVuSans-72" x="69.824219"/>
    <use xlink:href="#DejaVuSans-65" x="108.6875"/>
    <use xlink:href="#DejaVuSans-61" x="170.210938"/>
    <use xlink:href="#DejaVuSans-74" x="231.490234"/>
    <use xlink:href="#DejaVuSans-65" x="270.699219"/>
    <use xlink:href="#DejaVuSans-64" x="332.222656"/>
    <use xlink:href="#DejaVuSans-20" x="395.699219"/>
    <use xlink:href="#DejaVuSans-77" x="427.486328"/>
    <use xlink:href="#DejaVuSans-69" x="509.273438"/>
    <use xlink:href="#DejaVuSans-74" x="537.056641"/>
    <use xlink:href="#DejaVuSans-68" x="576.265625"/>
    <use xlink:href="#DejaVuSans-20" x="639.644531"/>
    <use xlink:href="#DejaVuSans-70" x="671.431641"/>
    <use xlink:href="#DejaVuSans-79" x="734.908203"/>
    <use xlink:href="#DejaVuSans-73" x="794.087891"/>
    <use xlink:href="#DejaVuSans-68" x="846.1875"/>
    <use xlink:href="#DejaVuSans-65" x="909.566406"/>
    <use xlink:href="#DejaVuSans-77" x="971.089844"/>
    <use xlink:href="#DejaVuSans-68" x="1052.876953"/>
    <use xlink:href="#DejaVuSans-61" x="1116.255859"/>
    <use xlink:href="#DejaVuSans-72" x="1177.535156"/>
    <use xlink:href="#DejaVuSans-74" x="1218.648438"/>
   </g>
  </g>
 </g>
 <defs>
  <clipPath id="pb81188f9ea">
   <rect x="43.45274" y="46.51447" width="748.125145" height="492.25779"/>
  </clipPath>
 </defs>
</svg>
